<?xml version="1.0" encoding="UTF-8"?>
<svg version="1.1" xmlns="http://www.w3.org/2000/svg" width="64" height="64">
<path d="M0 0 C1.65322266 0.01740234 1.65322266 0.01740234 3.33984375 0.03515625 C4.99693359 0.04869141 4.99693359 0.04869141 6.6875 0.0625 C7.54214844 0.07410156 8.39679687 0.08570312 9.27734375 0.09765625 C9.60734375 2.73765625 9.93734375 5.37765625 10.27734375 8.09765625 C11.025 8.14664062 11.77265625 8.195625 12.54296875 8.24609375 C13.5278125 8.32085937 14.51265625 8.395625 15.52734375 8.47265625 C16.501875 8.54226562 17.47640625 8.611875 18.48046875 8.68359375 C21.17367564 9.08230874 22.94697654 9.73272688 25.27734375 11.09765625 C25.93734375 10.43765625 26.59734375 9.77765625 27.27734375 9.09765625 C29.87890625 8.68359375 29.87890625 8.68359375 32.90234375 8.47265625 C33.90523437 8.39789063 34.908125 8.323125 35.94140625 8.24609375 C37.09769531 8.17261719 37.09769531 8.17261719 38.27734375 8.09765625 C38.60734375 5.45765625 38.93734375 2.81765625 39.27734375 0.09765625 C41.25643773 0.07079072 43.23563346 0.0513225 45.21484375 0.03515625 C46.31699219 0.02355469 47.41914062 0.01195313 48.5546875 0 C51.27734375 0.09765625 51.27734375 0.09765625 52.27734375 1.09765625 C52.3659225 3.83635867 52.39265082 6.55040608 52.375 9.2890625 C52.37399292 10.01540894 52.37298584 10.74175537 52.37194824 11.4901123 C52.36670091 14.21347626 52.35273975 16.93681778 52.33984375 19.66015625 C52.31921875 25.74453125 52.29859375 31.82890625 52.27734375 38.09765625 C33.79734375 38.09765625 15.31734375 38.09765625 -3.72265625 38.09765625 C-3.74328125 32.01328125 -3.76390625 25.92890625 -3.78515625 19.66015625 C-3.79426025 17.7376001 -3.80336426 15.81504395 -3.81274414 13.83422852 C-3.81566332 12.31917389 -3.81821187 10.80411848 -3.8203125 9.2890625 C-3.82542847 8.49528198 -3.83054443 7.70150146 -3.83581543 6.88366699 C-3.83612581 4.95462796 -3.78501518 3.02568713 -3.72265625 1.09765625 C-2.72265625 0.09765625 -2.72265625 0.09765625 0 0 Z M15.27734375 16.09765625 C15.27734375 16.75765625 15.27734375 17.41765625 15.27734375 18.09765625 C15.93734375 17.76765625 16.59734375 17.43765625 17.27734375 17.09765625 C16.61734375 16.76765625 15.95734375 16.43765625 15.27734375 16.09765625 Z M32.27734375 16.09765625 C31.94734375 16.75765625 31.61734375 17.41765625 31.27734375 18.09765625 C31.93734375 18.09765625 32.59734375 18.09765625 33.27734375 18.09765625 C32.94734375 17.43765625 32.61734375 16.77765625 32.27734375 16.09765625 Z M22.27734375 22.09765625 C26.27734375 23.09765625 26.27734375 23.09765625 26.27734375 23.09765625 Z " fill="#9D9B9B" transform="translate(7.72265625,19.90234375)"/>
<path d="M0 0 C8.58 0 17.16 0 26 0 C26 6.93 26 13.86 26 21 C23.03 21.33 20.06 21.66 17 22 C16.01 22.99 15.02 23.98 14 25 C10.125 23.125 10.125 23.125 9 22 C6.03 21.67 3.06 21.34 0 21 C0 14.07 0 7.14 0 0 Z M12 2 C11.67 3.32 11.34 4.64 11 6 C12.32 5.67 13.64 5.34 15 5 C14.67 4.01 14.34 3.02 14 2 C13.34 2 12.68 2 12 2 Z M10 6 C9.67 7.65 9.34 9.3 9 11 C9.66 10.67 10.32 10.34 11 10 C10.67 8.68 10.34 7.36 10 6 Z M15 6 C15.33 7.65 15.66 9.3 16 11 C16.33 10.01 16.66 9.02 17 8 C16.34 7.34 15.68 6.68 15 6 Z M8 12 C7.67 13.65 7.34 15.3 7 17 C8.65 17 10.3 17 12 17 C12 17.66 12 18.32 12 19 C12.66 19 13.32 19 14 19 C14 18.34 14 17.68 14 17 C15.65 17 17.3 17 19 17 C18.67 15.35 18.34 13.7 18 12 C17.67 12.99 17.34 13.98 17 15 C14.36 15 11.72 15 9 15 C8.67 14.01 8.34 13.02 8 12 Z " fill="#9D9B9B" transform="translate(19,6)"/>
</svg>
