<?xml version="1.0" encoding="UTF-8"?>
<svg version="1.1" xmlns="http://www.w3.org/2000/svg" width="80" height="80">
<path d="M0 0 C5.03072221 -0.32532029 10.05514772 -0.55893033 15.09399414 -0.71411133 C16.80080893 -0.778862 18.50692067 -0.86711748 20.21118164 -0.98071289 C28.44480005 -1.51511221 36.03159252 -1.64278022 42.93081665 3.42056274 C48.83160426 8.71518869 50.69247738 13.97618725 51.2019043 21.80908203 C51.31956143 27.34024148 51.08090595 32.77939079 50.8125 38.3125 C50.544375 46.129375 50.27625 53.94625 50 62 C33.5 62 17 62 0 62 C0 61.34 0 60.68 0 60 C-1.98 60 -3.96 60 -6 60 C-6 40.86 -6 21.72 -6 2 C-4.02 2 -2.04 2 0 2 C0 1.34 0 0.68 0 0 Z M2 2 C2 21.14 2 40.28 2 60 C17.18 60 32.36 60 48 60 C48 45.48 48 30.96 48 16 C43.38 16 38.76 16 34 16 C34 11.38 34 6.76 34 2 C23.44 2 12.88 2 2 2 Z M-4 4 C-4 21.82 -4 39.64 -4 58 C-2.68 58 -1.36 58 0 58 C0 40.18 0 22.36 0 4 C-1.32 4 -2.64 4 -4 4 Z M36 5 C36 7.97 36 10.94 36 14 C38.97 14 41.94 14 45 14 C44.071875 12.88625 43.14375 11.7725 42.1875 10.625 C41.66542969 9.99851562 41.14335938 9.37203125 40.60546875 8.7265625 C38.91774261 6.7778952 38.91774261 6.7778952 36 5 Z " fill="#000000" transform="translate(18,9)"/>
<path d="M0 0 C1.20462891 -0.02126953 1.20462891 -0.02126953 2.43359375 -0.04296875 C4.5625 0.1875 4.5625 0.1875 6.5625 2.1875 C7.15153984 6.64737305 7.08563356 8.50452008 4.3125 12.125 C1.5625 14.1875 1.5625 14.1875 -2.4375 14.1875 C-2.1075 12.5375 -1.7775 10.8875 -1.4375 9.1875 C-0.4475 8.8575 0.5425 8.5275 1.5625 8.1875 C1.2325 6.8675 0.9025 5.5475 0.5625 4.1875 C-0.4275 4.1875 -1.4175 4.1875 -2.4375 4.1875 C-2.4375 4.8475 -2.4375 5.5075 -2.4375 6.1875 C-3.7575 6.1875 -5.0775 6.1875 -6.4375 6.1875 C-5.33458299 0.04267666 -5.33458299 0.04267666 0 0 Z " fill="#000000" transform="translate(44.4375,33.8125)"/>
<path d="M0 0 C1.32 0 2.64 0 4 0 C4 1.32 4 2.64 4 4 C2.68 4 1.36 4 0 4 C0 2.68 0 1.36 0 0 Z " fill="#000000" transform="translate(42,51)"/>
<path d="M0 0 C0.66 0 1.32 0 2 0 C2 0.66 2 1.32 2 2 C1.34 2 0.68 2 0 2 C0 1.34 0 0.68 0 0 Z " fill="#000000" transform="translate(24,65)"/>
<path d="M0 0 C0.66 0 1.32 0 2 0 C2 0.66 2 1.32 2 2 C1.34 2 0.68 2 0 2 C0 1.34 0 0.68 0 0 Z " fill="#000000" transform="translate(24,61)"/>
<path d="M0 0 C0.66 0 1.32 0 2 0 C2 0.66 2 1.32 2 2 C1.34 2 0.68 2 0 2 C0 1.34 0 0.68 0 0 Z " fill="#000000" transform="translate(24,57)"/>
<path d="M0 0 C0.66 0 1.32 0 2 0 C2 0.66 2 1.32 2 2 C1.34 2 0.68 2 0 2 C0 1.34 0 0.68 0 0 Z " fill="#000000" transform="translate(24,53)"/>
<path d="M0 0 C0.66 0 1.32 0 2 0 C2 0.66 2 1.32 2 2 C1.34 2 0.68 2 0 2 C0 1.34 0 0.68 0 0 Z " fill="#000000" transform="translate(24,49)"/>
<path d="M0 0 C0.66 0 1.32 0 2 0 C2 0.66 2 1.32 2 2 C1.34 2 0.68 2 0 2 C0 1.34 0 0.68 0 0 Z " fill="#000000" transform="translate(24,45)"/>
<path d="M0 0 C0.66 0 1.32 0 2 0 C2 0.66 2 1.32 2 2 C1.34 2 0.68 2 0 2 C0 1.34 0 0.68 0 0 Z " fill="#000000" transform="translate(24,41)"/>
<path d="M0 0 C0.66 0 1.32 0 2 0 C2 0.66 2 1.32 2 2 C1.34 2 0.68 2 0 2 C0 1.34 0 0.68 0 0 Z " fill="#000000" transform="translate(24,37)"/>
<path d="M0 0 C0.66 0 1.32 0 2 0 C2 0.66 2 1.32 2 2 C1.34 2 0.68 2 0 2 C0 1.34 0 0.68 0 0 Z " fill="#000000" transform="translate(24,33)"/>
<path d="M0 0 C0.66 0 1.32 0 2 0 C2 0.66 2 1.32 2 2 C1.34 2 0.68 2 0 2 C0 1.34 0 0.68 0 0 Z " fill="#000000" transform="translate(24,29)"/>
<path d="M0 0 C0.66 0 1.32 0 2 0 C2 0.66 2 1.32 2 2 C1.34 2 0.68 2 0 2 C0 1.34 0 0.68 0 0 Z " fill="#000000" transform="translate(24,25)"/>
<path d="M0 0 C0.66 0 1.32 0 2 0 C2 0.66 2 1.32 2 2 C1.34 2 0.68 2 0 2 C0 1.34 0 0.68 0 0 Z " fill="#000000" transform="translate(24,21)"/>
<path d="M0 0 C0.66 0 1.32 0 2 0 C2 0.66 2 1.32 2 2 C1.34 2 0.68 2 0 2 C0 1.34 0 0.68 0 0 Z " fill="#000000" transform="translate(24,17)"/>
<path d="M0 0 C0.66 0 1.32 0 2 0 C2 0.66 2 1.32 2 2 C1.34 2 0.68 2 0 2 C0 1.34 0 0.68 0 0 Z " fill="#000000" transform="translate(24,13)"/>
</svg>
