<?xml version="1.0" encoding="UTF-8"?>
<svg version="1.1" xmlns="http://www.w3.org/2000/svg" width="64" height="64">
<path d="M0 0 C0 0.99 0 1.98 0 3 C-1.98 3.99 -3.96 4.98 -6 6 C-5.360625 6.94875 -4.72125 7.8975 -4.0625 8.875 C-0.87426197 14.4912912 -0.34442938 20.75867061 -1.5625 27.0625 C-4.08526177 35.22437632 -8.8776526 40.89369232 -16.37890625 44.90625 C-28.01866075 49.76337557 -42.57183241 46.03347091 -54 42 C-54 41.01 -54 40.02 -54 39 C-52.02 38.34 -50.04 37.68 -48 37 C-48.639375 35.88625 -49.27875 34.7725 -49.9375 33.625 C-53.20088176 27.05178266 -53.92171943 20.00304966 -51.79296875 12.9453125 C-48.40216592 4.62698831 -43.28538342 -0.44912139 -35 -4 C-23.05643034 -6.54260867 -11.4163192 -3.43768715 0 0 Z M-44.375 6.4375 C-48.88539423 11.86761149 -49.42084704 17.10347432 -49.3359375 23.97265625 C-48.84650768 28.38321564 -47.31142572 31.24393321 -45 35 C-40.15340923 34.40895235 -36.39251833 33.02055843 -32 31 C-32.639375 30.319375 -33.27875 29.63875 -33.9375 28.9375 C-36.40886708 25.41767416 -36.92481716 23.28542194 -37 19 C-35.63021968 15.28024051 -34.76054784 13.43964678 -31.28857422 11.43261719 C-30.2213916 11.05782227 -29.15420898 10.68302734 -28.0546875 10.296875 C-26.89582031 9.8740625 -25.73695312 9.45125 -24.54296875 9.015625 C-23.33253906 8.59796875 -22.12210938 8.1803125 -20.875 7.75 C-18.47447294 6.89647927 -16.07591216 6.03740097 -13.6796875 5.171875 C-12.61476074 4.8015918 -11.54983398 4.43130859 -10.45263672 4.04980469 C-7.85623897 3.25105357 -7.85623897 3.25105357 -7 1 C-19.85592111 -2.46120953 -34.72564357 -4.08489344 -44.375 6.4375 Z M-17.1875 9 C-18.08855469 9.37125 -18.98960938 9.7425 -19.91796875 10.125 C-20.60503906 10.41375 -21.29210937 10.7025 -22 11 C-21.360625 11.680625 -20.72125 12.36125 -20.0625 13.0625 C-17.59113292 16.58232584 -17.07518284 18.71457806 -17 23 C-18.36978032 26.71975949 -19.23945216 28.56035322 -22.71142578 30.56738281 C-23.7786084 30.94217773 -24.84579102 31.31697266 -25.9453125 31.703125 C-27.68361328 32.33734375 -27.68361328 32.33734375 -29.45703125 32.984375 C-30.66746094 33.40203125 -31.87789062 33.8196875 -33.125 34.25 C-35.52552706 35.10352073 -37.92408784 35.96259903 -40.3203125 36.828125 C-41.38523926 37.1984082 -42.45016602 37.56869141 -43.54736328 37.95019531 C-46.14376103 38.74894643 -46.14376103 38.74894643 -47 41 C-37.89015438 43.45265074 -25.31670676 45.44407245 -16.375 41.4375 C-10.88484461 38.01222606 -6.99609893 33.13346762 -5 27 C-4.08010552 19.24507557 -4.91513094 13.63791222 -9 7 C-12.29657856 7 -14.16364428 7.74333269 -17.1875 9 Z " fill="#9D9B9B" transform="translate(59,11)"/>
</svg>
