<?xml version="1.0" encoding="UTF-8"?>
<svg version="1.1" xmlns="http://www.w3.org/2000/svg" width="65" height="65">
<path d="M0 0 C2.22111286 0.38295049 3.80380283 0.86920188 5.6875 2.125 C7.75693622 5.08133746 7.93935598 7.42200253 8 11 C4.84137463 17.6043985 -2.08979783 25.37020646 -9 28 C-13.43593018 28 -16.13891932 27.27631428 -19.375 24.3125 C-22.02071376 21.34759825 -23.08662489 19.07136973 -23 15 C-21.10239093 10.42341343 -17.81719821 7.96893194 -14 5 C-13.01 6.32 -12.02 7.64 -11 9 C-11.845625 9.721875 -12.69125 10.44375 -13.5625 11.1875 C-16.28653211 13.71031918 -16.28653211 13.71031918 -16 16.625 C-14.97818776 19.05180407 -14.01459133 20.33577238 -12 22 C-8.39713494 20.47475964 -6.05700017 18.32514563 -3.3125 15.5625 C-2.13107422 14.38880859 -2.13107422 14.38880859 -0.92578125 13.19140625 C1.19415343 11.06537389 1.19415343 11.06537389 2 8 C0.68 6.68 -0.64 5.36 -2 4 C-1.34 2.68 -0.68 1.36 0 0 Z " fill="#9F9E9E" transform="translate(33,26)"/>
<path d="M0 0 C3.42666139 2.71699779 6.52766157 5.69412966 7.4296875 10.09765625 C7.19073402 14.23155151 5.81446982 16.56796855 2.9375 19.5 C1.968125 20.325 0.99875 21.15 0 22 C-1.32 21.34 -2.64 20.68 -4 20 C-4 17 -4 17 -1.5 14.3125 C-0.675 13.549375 0.15 12.78625 1 12 C-0.08784968 8.75016865 -0.08784968 8.75016865 -2 6 C-4.31401146 5.5232876 -4.31401146 5.5232876 -7 6 C-9.81932917 7.98801858 -9.81932917 7.98801858 -12.375 10.6875 C-13.26960938 11.55761719 -14.16421875 12.42773438 -15.0859375 13.32421875 C-17.29041974 15.81730604 -17.29041974 15.81730604 -16.85546875 18.6875 C-16.03964843 20.8928225 -15.14178407 22.94478868 -14 25 C-14.66 25.66 -15.32 26.32 -16 27 C-18.62892424 26.83039198 -19.78485562 26.19209319 -21.75 24.4375 C-23.5417769 20.94353505 -23.81994698 17.78894165 -23 14 C-21.10923126 11.09909953 -18.73740828 8.88630804 -16.1875 6.5625 C-15.54490234 5.93923828 -14.90230469 5.31597656 -14.24023438 4.67382812 C-9.62132292 0.27509276 -6.57562573 -2.1497238 0 0 Z " fill="#9D9C9C" transform="translate(46,12)"/>
</svg>
