<?xml version="1.0" encoding="UTF-8"?>
<svg version="1.1" xmlns="http://www.w3.org/2000/svg" width="100" height="100">
<path d="M0 0 C1.20269531 -0.02578125 2.40539063 -0.0515625 3.64453125 -0.078125 C8.20294379 0.34404331 11.44269102 1.69184501 14.8671875 4.75 C18.1875 8.91666667 18.1875 8.91666667 18.1875 12.25 C19.08581543 12.23952637 19.98413086 12.22905273 20.90966797 12.21826172 C24.23814447 12.1842053 27.56643622 12.15911382 30.89501953 12.14013672 C32.33645547 12.13007037 33.77787095 12.1164162 35.21923828 12.09912109 C37.28943934 12.07489988 39.35937076 12.06352359 41.4296875 12.0546875 C43.29923096 12.03897705 43.29923096 12.03897705 45.20654297 12.02294922 C48.1875 12.25 48.1875 12.25 50.1875 14.25 C50.36291472 17.26222907 50.41891683 20.18387006 50.3828125 23.1953125 C50.38079834 23.97962646 50.37878418 24.76394043 50.37670898 25.57202148 C50.36623207 28.50640701 50.33830952 31.44070928 50.3125 34.375 C50.27125 40.93375 50.23 47.4925 50.1875 54.25 C36.6575 54.25 23.1275 54.25 9.1875 54.25 C8.5275 52.93 7.8675 51.61 7.1875 50.25 C2.71137793 48.75795931 -1.77902791 48.57217597 -6.25 50.0625 C-8.12867939 51.25860209 -8.12867939 51.25860209 -8.8125 54.25 C-22.3425 54.25 -35.8725 54.25 -49.8125 54.25 C-49.85375 47.69125 -49.895 41.1325 -49.9375 34.375 C-49.95570801 32.30492676 -49.97391602 30.23485352 -49.99267578 28.10205078 C-49.99851544 26.466474 -50.00361224 24.83089432 -50.0078125 23.1953125 C-50.01804443 22.34187256 -50.02827637 21.48843262 -50.03881836 20.60913086 C-50.03944981 18.48807867 -49.93580885 16.36746493 -49.8125 14.25 C-47.8125 12.25 -47.8125 12.25 -44.83154297 12.02294922 C-43.58518066 12.03342285 -42.33881836 12.04389648 -41.0546875 12.0546875 C-40.06011032 12.05893234 -40.06011032 12.05893234 -39.04544067 12.06326294 C-36.92594417 12.07446565 -34.80686896 12.09956949 -32.6875 12.125 C-31.25130818 12.13502972 -29.81510975 12.14415559 -28.37890625 12.15234375 C-24.85663372 12.174405 -21.33460797 12.20893506 -17.8125 12.25 C-17.6789209 11.46141602 -17.5453418 10.67283203 -17.40771484 9.86035156 C-16.70615364 6.78361146 -15.8625018 5.94409427 -13.4375 4 C-12.52871094 3.24976563 -12.52871094 3.24976563 -11.6015625 2.484375 C-7.90077261 -0.06900842 -4.36512483 0.05578434 0 0 Z M-11.8125 9.25 C-12.1425 10.24 -12.4725 11.23 -12.8125 12.25 C-4.2325 12.25 4.3475 12.25 13.1875 12.25 C10.53426718 7.26568536 10.53426718 7.26568536 6.1875 5.25 C-0.7798867 4.41546622 -6.56429451 4.28548129 -11.8125 9.25 Z " fill="#9D9C9C" transform="translate(49.8125,3.75)"/>
<path d="M0 0 C20.295 0.495 20.295 0.495 41 1 C41.66 2.32 42.32 3.64 43 5 C47.47612207 6.49204069 51.96652791 6.67782403 56.4375 5.1875 C58.31617939 3.99139791 58.31617939 3.99139791 59 1 C72.53 0.67 86.06 0.34 100 0 C100.04125 5.40375 100.0825 10.8075 100.125 16.375 C100.14320801 18.07962402 100.16141602 19.78424805 100.18017578 21.54052734 C100.18601603 22.88899419 100.1911127 24.23746455 100.1953125 25.5859375 C100.20554443 26.28823486 100.21577637 26.99053223 100.22631836 27.71411133 C100.2269548 29.47768836 100.12266864 31.24069424 100 33 C97.3287442 35.6712558 95.31339014 35.24569255 91.68109131 35.27105713 C90.79375305 35.26700867 89.90641479 35.26296021 88.9921875 35.25878906 C87.59205414 35.26404602 87.59205414 35.26404602 86.16363525 35.26940918 C83.06734863 35.27823702 79.97128909 35.27237361 76.875 35.265625 C74.73030554 35.26697135 72.58561138 35.26891162 70.44091797 35.27142334 C65.94170227 35.27437603 61.44256587 35.27007228 56.94335938 35.26074219 C51.16590055 35.24934761 45.38862753 35.2559063 39.61117554 35.26788712 C35.18121939 35.27510179 30.75130755 35.27281959 26.3213501 35.26763153 C24.19061257 35.26629395 22.05987107 35.26794653 19.92913818 35.27259064 C16.95525399 35.2776494 13.98167395 35.26995476 11.0078125 35.25878906 C10.12047424 35.26283752 9.23313599 35.26688599 8.31890869 35.27105713 C2.2285276 35.2285276 2.2285276 35.2285276 0 33 C-0.17488447 30.49181828 -0.23183624 28.09284668 -0.1953125 25.5859375 C-0.19329834 24.93923096 -0.19128418 24.29252441 -0.18920898 23.6262207 C-0.17874025 21.20907505 -0.1508176 18.79203044 -0.125 16.375 C-0.08375 10.97125 -0.0425 5.5675 0 0 Z " fill="#9D9B9B" transform="translate(0,61)"/>
<path d="M0 0 C3.96 0 7.92 0 12 0 C12 2.64 12 5.28 12 8 C8.04 8 4.08 8 0 8 C0 5.36 0 2.72 0 0 Z " fill="#9D9B9B" transform="translate(44,56)"/>
</svg>
