<?xml version="1.0" encoding="UTF-8"?>
<svg version="1.1" xmlns="http://www.w3.org/2000/svg" width="96" height="96">
<path d="M0 0 C0 23.76 0 47.52 0 72 C-7 72 -7 72 -9.31665039 70.27172852 C-9.98688232 69.48209717 -10.65711426 68.69246582 -11.34765625 67.87890625 C-12.11916016 67.02619141 -12.89066406 66.17347656 -13.68554688 65.29492188 C-15.25651405 63.48901959 -16.81413602 61.67141151 -18.35742188 59.84179688 C-25.85758168 51.63559395 -27.34118626 52.90420098 -40 52 C-40 41.44 -40 30.88 -40 20 C-35.38 19.67 -30.76 19.34 -26 19 C-22.06185592 15.82558186 -19.24837033 13.21445096 -16.0625 9.4375 C-14.50790364 7.65041676 -12.93680568 5.87752207 -11.34765625 4.12109375 C-10.67742432 3.3314624 -10.00719238 2.54183105 -9.31665039 1.72827148 C-7 0 -7 0 0 0 Z " fill="#9D9B9B" transform="translate(68,12)"/>
</svg>
