<?xml version="1.0" encoding="UTF-8"?>
<svg version="1.1" xmlns="http://www.w3.org/2000/svg" width="100" height="100">
<path d="M0 0 C0.66 0 1.32 0 2 0 C2 1.32 2 2.64 2 4 C2.99 4 3.98 4 5 4 C5 2.68 5 1.36 5 0 C5.99 0 6.98 0 8 0 C8 1.65 8 3.3 8 5 C8.66 5 9.32 5 10 5 C10 4.34 10 3.68 10 3 C13 4 13 4 14 6 C14.33 5.01 14.66 4.02 15 3 C15.99 3 16.98 3 18 3 C18 4.65 18 6.3 18 8 C19.32 7.34 20.64 6.68 22 6 C22.495 8.475 22.495 8.475 23 11 C23.33 10.34 23.66 9.68 24 9 C24.99 9 25.98 9 27 9 C26.814375 10.2065625 26.814375 10.2065625 26.625 11.4375 C27.10157807 15.9649917 28.94761745 18.33255439 31.58984375 21.94921875 C35.44254709 27.55218068 34.88556368 35.46346365 34 42 C31.03284128 51.45987133 24.93505289 59.40114844 16.3125 64.375 C12.72881097 66.06475514 9.55171495 66.15403597 5.625 66.375 C1.17769514 66.90308509 -1.15501914 67.77401269 -3.98828125 71.1640625 C-6.554725 74.63747898 -8.76817412 78.30594337 -11 82 C-11.66 82.66 -12.32 83.32 -13 84 C-14.32 84 -15.64 84 -17 84 C-17 78.39 -17 72.78 -17 67 C-18.753125 66.649375 -20.50625 66.29875 -22.3125 65.9375 C-33.16847672 63.18510024 -41.06853087 57.49035061 -47 48 C-50.79625779 40.91365213 -52.05330434 33.59609336 -49.71875 25.83984375 C-46.60663169 17.87349742 -40.34892053 12.94610911 -32.875 9.3125 C-22.37490098 4.86573675 -12.34500893 3.49866573 -1 4 C-0.67 2.68 -0.34 1.36 0 0 Z M-42 22 C-44.74568906 25.5179141 -45.60547528 28.56159694 -46 33 C-45.67 33.66 -45.34 34.32 -45 35 C-44.01 35 -43.02 35 -42 35 C-42.66 35.99 -43.32 36.98 -44 38 C-43.69159401 40.15274948 -43.69159401 40.15274948 -43 42 C-42.34 41.01 -41.68 40.02 -41 39 C-40.34 39.33 -39.68 39.66 -39 40 C-39.350625 40.7425 -39.70125 41.485 -40.0625 42.25 C-41.04509293 45.1322726 -41.0326802 46.21176345 -40 49 C-38.45833358 47.62514468 -38.45833358 47.62514468 -37 46 C-37 45.34 -37 44.68 -37 44 C-36.01 44 -35.02 44 -34 44 C-34.99 46.64 -35.98 49.28 -37 52 C-36.01 52 -35.02 52 -34 52 C-33.67 51.34 -33.34 50.68 -33 50 C-32.34 50 -31.68 50 -31 50 C-31.33 51.98 -31.66 53.96 -32 56 C-31.34 56.33 -30.68 56.66 -30 57 C-29.67 55.35 -29.34 53.7 -29 52 C-28.01 52 -27.02 52 -26 52 C-26.33 54.31 -26.66 56.62 -27 59 C-26.34 59 -25.68 59 -25 59 C-24.67 58.01 -24.34 57.02 -24 56 C-23.34 56.33 -22.68 56.66 -22 57 C-22 58.32 -22 59.64 -22 61 C-21.34 61 -20.68 61 -20 61 C-19.67 60.01 -19.34 59.02 -19 58 C-18.01 57.505 -18.01 57.505 -17 57 C-17 58.65 -17 60.3 -17 62 C-15.68 62 -14.36 62 -13 62 C-12.505 67.445 -12.505 67.445 -12 73 C-8.3194961 69.42441613 -8.3194961 69.42441613 -5.375 65.25 C-2.54433417 62.56831658 -1.65537215 62.69114241 2.125 62.5 C10.18888327 62.08067807 16.33772356 59.15250106 21.875 53.25 C27.39805582 46.25151792 29.79515173 39.85135691 29.44140625 30.859375 C28.3448171 23.75580636 23.62731373 18.97399327 18.23046875 14.5390625 C0.78892769 2.50409371 -27.43486977 7.56818904 -42 22 Z " fill="#000000" transform="translate(58,7)"/>
<path d="M0 0 C2.475 0.495 2.475 0.495 5 1 C5 7.6 5 14.2 5 21 C3.68 21.33 2.36 21.66 1 22 C0 21 0 21 -0.11352539 18.95874023 C-0.10828857 18.08419189 -0.10305176 17.20964355 -0.09765625 16.30859375 C-0.09443359 15.36435547 -0.09121094 14.42011719 -0.08789062 13.44726562 C-0.07951172 12.45404297 -0.07113281 11.46082031 -0.0625 10.4375 C-0.05798828 9.44041016 -0.05347656 8.44332031 -0.04882812 7.41601562 C-0.03700007 4.94395151 -0.02051849 2.47200482 0 0 Z " fill="#000000" transform="translate(50,37)"/>
<path d="M0 0 C1.65 0.33 3.3 0.66 5 1 C5.625 3.375 5.625 3.375 6 6 C5.34 6.66 4.68 7.32 4 8 C1.375 7.625 1.375 7.625 -1 7 C-1.625 5.1875 -1.625 5.1875 -2 3 C-1.34 2.01 -0.68 1.02 0 0 Z " fill="#000000" transform="translate(50,24)"/>
<path d="M0 0 C0.99 0 1.98 0 3 0 C3 0.99 3 1.98 3 3 C2.01 3 1.02 3 0 3 C0 2.01 0 1.02 0 0 Z " fill="#000000" transform="translate(74,29)"/>
<path d="M0 0 C0.99 0 1.98 0 3 0 C2.67 0.99 2.34 1.98 2 3 C1.34 3 0.68 3 0 3 C0 2.01 0 1.02 0 0 Z " fill="#000000" transform="translate(67,31)"/>
<path d="M0 0 C0.99 0.33 1.98 0.66 3 1 C3 1.66 3 2.32 3 3 C2.01 3 1.02 3 0 3 C0 2.01 0 1.02 0 0 Z " fill="#000000" transform="translate(66,22)"/>
</svg>
